<svg xmlns="http://www.w3.org/2000/svg" viewBox="0 0 65 65"><defs><style>.a{fill:#333;}.b{fill:#fff;stroke:#fff;stroke-miterlimit:10;stroke-width:3px;}</style></defs><rect class="a" width="65" height="65" rx="5.91"/><path class="b" d="M11,33.35h4.14c.39,5.08,2.1,9.5,5.9,12.94a17.63,17.63,0,0,0,28.09-6.08A17.67,17.67,0,0,0,44.47,19.9c-6.11-5.2-14.3-5.71-21.43-1.18L25.89,22H15.4V11.45l4.25,4.06c5.72-3.87,12-5.36,18.76-3.61A21.59,21.59,0,0,1,50,19.37,22,22,0,0,1,26,54.16C17,51.13,10.67,42.47,11,33.35Z"/></svg>