<svg xmlns="http://www.w3.org/2000/svg" viewBox="0 0 213.74 28.8"><defs><style>.a{fill:#333;}</style></defs><path class="a" d="M13.65,15.83a7.5,7.5,0,0,1-1.49,4.65,4.67,4.67,0,0,1-2.92,2.15c-1,.1-1.57.16-1.86.16a6.07,6.07,0,0,1-2-.35,5.2,5.2,0,0,1-1.55-.81,6.73,6.73,0,0,1-.93-.89,3.78,3.78,0,0,1-.54-.85V28.8H0V9.1H2.32V12A5.54,5.54,0,0,1,7.41,8.76h.35l1.6.31a5.19,5.19,0,0,1,2.82,2.18A7.32,7.32,0,0,1,13.65,15.83ZM7.53,20.72a3.85,3.85,0,0,0,2.63-1.78,6,6,0,0,0,.95-3.31,5.17,5.17,0,0,0-1-3.26,3.55,3.55,0,0,0-3-1.35,4.44,4.44,0,0,0-3.43,1.46A5.1,5.1,0,0,0,2.32,16a4.78,4.78,0,0,0,1.27,3.38,4.17,4.17,0,0,0,3.19,1.37l.41,0Z"/><path class="a" d="M42,15.86a6.65,6.65,0,0,1-2.1,4.94,7.31,7.31,0,0,1-10.13,0,6.66,6.66,0,0,1-2.11-5,7,7,0,0,1,2.05-5.05,6.71,6.71,0,0,1,5-2.11,7.16,7.16,0,0,1,5.16,2.09A6.85,6.85,0,0,1,42,15.86Zm-2.14,0a5,5,0,0,0-1.42-3.55A4.66,4.66,0,0,0,35,10.85a5,5,0,0,0-3.56,1.41,4.54,4.54,0,0,0-1.48,3.43,4.9,4.9,0,0,0,1.43,3.5,4.68,4.68,0,0,0,3.47,1.48,5,5,0,0,0,3.52-1.4A4.49,4.49,0,0,0,39.85,15.86Z"/><path class="a" d="M73.34,22.41H70.9V12.75a1.18,1.18,0,0,0-.17-.58l-.26-.49a3.11,3.11,0,0,0-.94-.66,2.74,2.74,0,0,0-1-.2,3,3,0,0,0-2.06.86,4,4,0,0,0-1.23,2.13v8.6H62.83v-9a3.16,3.16,0,0,0-.91-1.91,2.54,2.54,0,0,0-1.83-.7A4,4,0,0,0,59,11a3.47,3.47,0,0,0-1.3.95,4.32,4.32,0,0,0-.84,1.46v9h-2.2V9.1h2.2v2.29a5.57,5.57,0,0,1,1.57-1.86,3.5,3.5,0,0,1,2.2-.74H61a3.68,3.68,0,0,1,2.33.8,4.44,4.44,0,0,1,1.47,2.09,4.45,4.45,0,0,1,1.76-2.1,4.73,4.73,0,0,1,2.65-.79,4.47,4.47,0,0,1,1.9.41,4.1,4.1,0,0,1,1.53,1.31A3,3,0,0,1,73.34,12Z"/><path class="a" d="M99.24,15.86a6.65,6.65,0,0,1-2.1,4.94A7.31,7.31,0,0,1,87,20.8a6.66,6.66,0,0,1-2.11-5,7,7,0,0,1,2-5.05,6.71,6.71,0,0,1,5-2.11,7.16,7.16,0,0,1,5.16,2.09A6.85,6.85,0,0,1,99.24,15.86Zm-2.14,0a5,5,0,0,0-1.42-3.55,4.66,4.66,0,0,0-3.45-1.46,5,5,0,0,0-3.56,1.41,4.54,4.54,0,0,0-1.48,3.43,4.9,4.9,0,0,0,1.43,3.5,4.68,4.68,0,0,0,3.47,1.48,5,5,0,0,0,3.52-1.4A4.49,4.49,0,0,0,97.1,15.86Z"/><path class="a" d="M126.46,22.41h-2.14V19.78A5.1,5.1,0,0,1,122.25,22a5.8,5.8,0,0,1-2.91.76,6.58,6.58,0,0,1-2.42-.46,6.19,6.19,0,0,1-2.12-1.39,5.9,5.9,0,0,1-1.43-2.2A7.61,7.61,0,0,1,112.9,16,8.66,8.66,0,0,1,114,11.74a5.91,5.91,0,0,1,2.33-2.21,6.6,6.6,0,0,1,3.14-.8,5.71,5.71,0,0,1,3.1.89,7.9,7.9,0,0,1,.84.71c.27.27.57.61.92,1V0h2.14Zm-3.29-3.06a5.72,5.72,0,0,0,1.15-3.58,5.35,5.35,0,0,0-.93-3.1A4.05,4.05,0,0,0,120.68,11c-.34,0-.6-.05-.77-.05a4.35,4.35,0,0,0-3,1.1,3.62,3.62,0,0,0-1.41,2.12c-.08.67-.13,1.09-.14,1.24s0,.29,0,.4a5.88,5.88,0,0,0,1.07,3.52,3.52,3.52,0,0,0,3.05,1.49,5.8,5.8,0,0,0,2-.33A4.28,4.28,0,0,0,123.17,19.35Z"/><path class="a" d="M156.49,15.86a6.65,6.65,0,0,1-2.1,4.94,7.31,7.31,0,0,1-10.13,0,6.66,6.66,0,0,1-2.11-5,7,7,0,0,1,2-5.05,6.71,6.71,0,0,1,5-2.11,7.16,7.16,0,0,1,5.16,2.09A6.85,6.85,0,0,1,156.49,15.86Zm-2.14,0a5,5,0,0,0-1.42-3.55,4.66,4.66,0,0,0-3.45-1.46,5,5,0,0,0-3.56,1.41,4.54,4.54,0,0,0-1.48,3.43,4.9,4.9,0,0,0,1.43,3.5,4.68,4.68,0,0,0,3.47,1.48,5,5,0,0,0,3.52-1.4A4.49,4.49,0,0,0,154.35,15.86Z"/><path class="a" d="M182.91,9.68l-1.37,1.88a2.36,2.36,0,0,0-1.55-.65,2.61,2.61,0,0,0-2,1.1,5.57,5.57,0,0,0-1.2,2.42v8h-2.32V9.22h2.15v3.23a6,6,0,0,1,1.33-2.39,3.58,3.58,0,0,1,2.22-1.24A4.84,4.84,0,0,1,182.91,9.68Z"/><path class="a" d="M213.74,15.86a6.65,6.65,0,0,1-2.1,4.94,7.31,7.31,0,0,1-10.13,0,6.66,6.66,0,0,1-2.11-5,7,7,0,0,1,2-5.05,6.71,6.71,0,0,1,5-2.11,7.16,7.16,0,0,1,5.16,2.09A6.85,6.85,0,0,1,213.74,15.86Zm-2.14,0a5,5,0,0,0-1.42-3.55,4.66,4.66,0,0,0-3.45-1.46,5,5,0,0,0-3.56,1.41,4.54,4.54,0,0,0-1.48,3.43,4.9,4.9,0,0,0,1.43,3.5,4.68,4.68,0,0,0,3.47,1.48,5,5,0,0,0,3.52-1.4A4.49,4.49,0,0,0,211.6,15.86Z"/></svg>